<svg xmlns="http://www.w3.org/2000/svg" viewBox="0 0 640 384" width="640" height="384" font-family="Inter, system-ui, -apple-system, Segoe UI, Roboto, sans-serif">
  <rect width="640" height="384" fill="#ffffff" rx="4"/>
  <rect width="640" height="384" fill="none" stroke="#e2e8f0" stroke-width="1" rx="4"/>
  <text x="320" y="28" text-anchor="middle" font-size="14" font-weight="700" fill="#1e293b">Figure 9 — Distribution of Cases by Type (n = 1,480)</text>
  <path d="M 200 95 A 105 105 0 0 1 284.94678440936946 261.71745149070966 L 244.4959346906221 232.32818887608602 A 55 55 0 0 0 200 145 Z" fill="#2563eb"/><path d="M 284.94678440936946 261.71745149070966 A 105 105 0 0 1 149.1816516679417 291.8830532405274 L 173.38086515939804 248.12921836408577 A 55 55 0 0 0 244.4959346906221 232.32818887608602 Z" fill="#0d9488"/><path d="M 149.1816516679417 291.8830532405274 A 105 105 0 0 1 96.91029021783014 180.06230361782005 L 146.0006282093396 189.55644475219145 A 55 55 0 0 0 173.38086515939804 248.12921836408577 Z" fill="#d97706"/><path d="M 96.91029021783014 180.06230361782005 A 105 105 0 0 1 149.57218835348272 107.90203144182072 L 173.58543199468141 151.7582069457156 A 55 55 0 0 0 146.0006282093396 189.55644475219145 Z" fill="#7c3aed"/><path d="M 149.57218835348272 107.90203144182072 A 105 105 0 0 1 199.99999999999997 95 L 200 145 A 55 55 0 0 0 173.58543199468141 151.7582069457156 Z" fill="#dc2626"/><text x="271.28052193506943" y="167.68076002083626" text-anchor="middle" font-size="11" font-weight="700" fill="#ffffff">35%</text><text x="217.3520095219741" y="282.0955041314756" text-anchor="middle" font-size="11" font-weight="700" fill="#ffffff">23%</text><text x="127.52730586126701" y="237.87784828281832" text-anchor="middle" font-size="11" font-weight="700" fill="#ffffff">20%</text><text x="135.37860142130086" y="156.83990197494387" text-anchor="middle" font-size="11" font-weight="700" fill="#ffffff">14%</text><text x="180.17060848763313" y="126.49648245241205" text-anchor="middle" font-size="11" font-weight="700" fill="#ffffff">8%</text><text x="200" y="194" text-anchor="middle" font-size="11" fill="#475569">Total</text>
  <text x="200" y="212" text-anchor="middle" font-size="16" font-weight="700" fill="#1e293b">1480</text><rect x="345" y="142" width="13" height="13" rx="2" fill="#2563eb"/><text x="363" y="152" font-size="11" fill="#475569">Type Alpha</text><text x="565" y="152" text-anchor="end" font-size="11" font-weight="600" fill="#1e293b">35%</text><rect x="345" y="166" width="13" height="13" rx="2" fill="#0d9488"/><text x="363" y="176" font-size="11" fill="#475569">Type Beta</text><text x="565" y="176" text-anchor="end" font-size="11" font-weight="600" fill="#1e293b">23%</text><rect x="345" y="190" width="13" height="13" rx="2" fill="#d97706"/><text x="363" y="200" font-size="11" fill="#475569">Type Gamma</text><text x="565" y="200" text-anchor="end" font-size="11" font-weight="600" fill="#1e293b">20%</text><rect x="345" y="214" width="13" height="13" rx="2" fill="#7c3aed"/><text x="363" y="224" font-size="11" fill="#475569">Type Delta</text><text x="565" y="224" text-anchor="end" font-size="11" font-weight="600" fill="#1e293b">14%</text><rect x="345" y="238" width="13" height="13" rx="2" fill="#dc2626"/><text x="363" y="248" font-size="11" fill="#475569">Type Epsilon</text><text x="565" y="248" text-anchor="end" font-size="11" font-weight="600" fill="#1e293b">8%</text>
  <text x="628" y="376" text-anchor="end" font-size="9" fill="#94a3b8">Illustrative sample data — not real.</text>
</svg>