<svg xmlns="http://www.w3.org/2000/svg" viewBox="0 0 640 384" width="640" height="384" font-family="Inter, system-ui, -apple-system, Segoe UI, Roboto, sans-serif">
  <rect width="640" height="384" fill="#ffffff" rx="4"/>
  <rect width="640" height="384" fill="none" stroke="#e2e8f0" stroke-width="1" rx="4"/>
  <text x="320" y="28" text-anchor="middle" font-size="14" font-weight="700" fill="#1e293b">Figure 3 — Program Enrollment by Cohort Year</text>
  <line x1="60" y1="320" x2="610" y2="320" stroke="#e2e8f0" stroke-width="1"/><line x1="60" y1="266.4" x2="610" y2="266.4" stroke="#e2e8f0" stroke-width="1"/><line x1="60" y1="212.8" x2="610" y2="212.8" stroke="#e2e8f0" stroke-width="1"/><line x1="60" y1="159.20000000000002" x2="610" y2="159.20000000000002" stroke="#e2e8f0" stroke-width="1"/><line x1="60" y1="105.6" x2="610" y2="105.6" stroke="#e2e8f0" stroke-width="1"/><line x1="60" y1="52" x2="610" y2="52" stroke="#e2e8f0" stroke-width="1"/><line x1="60" y1="52" x2="60" y2="320" stroke="#475569" stroke-width="1.5"/><line x1="60" y1="320" x2="610" y2="320" stroke="#475569" stroke-width="1.5"/><text x="54" y="324" text-anchor="end" font-size="10" fill="#475569">0</text><text x="54" y="270.4" text-anchor="end" font-size="10" fill="#475569">66</text><text x="54" y="216.8" text-anchor="end" font-size="10" fill="#475569">133</text><text x="54" y="163.20000000000002" text-anchor="end" font-size="10" fill="#475569">199</text><text x="54" y="109.6" text-anchor="end" font-size="10" fill="#475569">266</text><text x="54" y="56" text-anchor="end" font-size="10" fill="#475569">332</text><rect x="84.75" y="204.68782909583268" width="60.50000000000001" height="115.3121709041673" rx="3" fill="#7c3aed"/><text x="115" y="200.68782909583268" text-anchor="middle" font-size="10" font-weight="600" fill="#1e293b">143</text><text x="115" y="336" text-anchor="middle" font-size="10" fill="#475569">2020</text><rect x="194.75" y="160.33699413269142" width="60.50000000000001" height="159.66300586730858" rx="3" fill="#7c3aed"/><text x="225" y="156.33699413269142" text-anchor="middle" font-size="10" font-weight="600" fill="#1e293b">198</text><text x="225" y="336" text-anchor="middle" font-size="10" fill="#475569">2021</text><rect x="304.75" y="136.9520084248533" width="60.50000000000001" height="183.0479915751467" rx="3" fill="#7c3aed"/><text x="335" y="132.9520084248533" text-anchor="middle" font-size="10" font-weight="600" fill="#1e293b">227</text><text x="335" y="336" text-anchor="middle" font-size="10" fill="#475569">2022</text><rect x="414.75" y="109.53512862945689" width="60.50000000000001" height="210.4648713705431" rx="3" fill="#7c3aed"/><text x="445" y="105.53512862945689" text-anchor="middle" font-size="10" font-weight="600" fill="#1e293b">261</text><text x="445" y="336" text-anchor="middle" font-size="10" fill="#475569">2023</text><rect x="524.75" y="86.95652173913041" width="60.50000000000001" height="233.0434782608696" rx="3" fill="#7c3aed"/><text x="555" y="82.95652173913041" text-anchor="middle" font-size="10" font-weight="600" fill="#1e293b">289</text><text x="555" y="336" text-anchor="middle" font-size="10" fill="#475569">2024</text><text x="14" y="186" text-anchor="middle" font-size="10" fill="#475569" transform="rotate(-90,14,186)">Enrolled Participants</text><text x="335" y="366" text-anchor="middle" font-size="10" fill="#475569">Cohort Year</text>
  <text x="628" y="376" text-anchor="end" font-size="9" fill="#94a3b8">Illustrative sample data — not real.</text>
</svg>