<svg xmlns="http://www.w3.org/2000/svg" viewBox="0 0 640 384" width="640" height="384" font-family="Inter, system-ui, -apple-system, Segoe UI, Roboto, sans-serif">
  <rect width="640" height="384" fill="#ffffff" rx="4"/>
  <rect width="640" height="384" fill="none" stroke="#e2e8f0" stroke-width="1" rx="4"/>
  <text x="320" y="28" text-anchor="middle" font-size="14" font-weight="700" fill="#1e293b">Figure 7 — Outcome Trends: Group 1 vs. Group 2 (2018–2024)</text>
  <line x1="64" y1="320" x2="610" y2="320" stroke="#e2e8f0" stroke-width="1"/><line x1="64" y1="266.4" x2="610" y2="266.4" stroke="#e2e8f0" stroke-width="1"/><line x1="64" y1="212.8" x2="610" y2="212.8" stroke="#e2e8f0" stroke-width="1"/><line x1="64" y1="159.20000000000002" x2="610" y2="159.20000000000002" stroke="#e2e8f0" stroke-width="1"/><line x1="64" y1="105.6" x2="610" y2="105.6" stroke="#e2e8f0" stroke-width="1"/><line x1="64" y1="52" x2="610" y2="52" stroke="#e2e8f0" stroke-width="1"/><line x1="64" y1="52" x2="64" y2="320" stroke="#e2e8f0" stroke-width="1"/><line x1="155" y1="52" x2="155" y2="320" stroke="#e2e8f0" stroke-width="1"/><line x1="246" y1="52" x2="246" y2="320" stroke="#e2e8f0" stroke-width="1"/><line x1="337" y1="52" x2="337" y2="320" stroke="#e2e8f0" stroke-width="1"/><line x1="428" y1="52" x2="428" y2="320" stroke="#e2e8f0" stroke-width="1"/><line x1="519" y1="52" x2="519" y2="320" stroke="#e2e8f0" stroke-width="1"/><line x1="610" y1="52" x2="610" y2="320" stroke="#e2e8f0" stroke-width="1"/><line x1="64" y1="52" x2="64" y2="320" stroke="#475569" stroke-width="1.5"/><line x1="64" y1="320" x2="610" y2="320" stroke="#475569" stroke-width="1.5"/><text x="56" y="324" text-anchor="end" font-size="10" fill="#475569">41</text><text x="56" y="270.4" text-anchor="end" font-size="10" fill="#475569">51</text><text x="56" y="216.8" text-anchor="end" font-size="10" fill="#475569">61</text><text x="56" y="163.20000000000002" text-anchor="end" font-size="10" fill="#475569">71</text><text x="56" y="109.6" text-anchor="end" font-size="10" fill="#475569">81</text><text x="56" y="56" text-anchor="end" font-size="10" fill="#475569">91</text><text x="64" y="336" text-anchor="middle" font-size="10" fill="#475569">2018</text><text x="155" y="336" text-anchor="middle" font-size="10" fill="#475569">2019</text><text x="246" y="336" text-anchor="middle" font-size="10" fill="#475569">2020</text><text x="337" y="336" text-anchor="middle" font-size="10" fill="#475569">2021</text><text x="428" y="336" text-anchor="middle" font-size="10" fill="#475569">2022</text><text x="519" y="336" text-anchor="middle" font-size="10" fill="#475569">2023</text><text x="610" y="336" text-anchor="middle" font-size="10" fill="#475569">2024</text><polyline points="64,206.48151848151846 155,190.4175824175824 246,217.19080919080918 337,174.35364635364633 428,152.9350649350649 519,136.87112887112886 610,115.4525474525474" fill="none" stroke="#2563eb" stroke-width="2.5" stroke-linejoin="round" stroke-linecap="round"/><circle cx="64" cy="206.48151848151846" r="4" fill="#2563eb" stroke="#ffffff" stroke-width="1.5"/><circle cx="155" cy="190.4175824175824" r="4" fill="#2563eb" stroke="#ffffff" stroke-width="1.5"/><circle cx="246" cy="217.19080919080918" r="4" fill="#2563eb" stroke="#ffffff" stroke-width="1.5"/><circle cx="337" cy="174.35364635364633" r="4" fill="#2563eb" stroke="#ffffff" stroke-width="1.5"/><circle cx="428" cy="152.9350649350649" r="4" fill="#2563eb" stroke="#ffffff" stroke-width="1.5"/><circle cx="519" cy="136.87112887112886" r="4" fill="#2563eb" stroke="#ffffff" stroke-width="1.5"/><circle cx="610" cy="115.4525474525474" r="4" fill="#2563eb" stroke="#ffffff" stroke-width="1.5"/><polyline points="64,281.4465534465534 155,265.38261738261735 246,276.09190809190807 337,249.31868131868129 428,227.90009990009986 519,238.60939060939057 610,211.8361638361638" fill="none" stroke="#dc2626" stroke-width="2.5" stroke-linejoin="round" stroke-linecap="round"/><circle cx="64" cy="281.4465534465534" r="4" fill="#dc2626" stroke="#ffffff" stroke-width="1.5"/><circle cx="155" cy="265.38261738261735" r="4" fill="#dc2626" stroke="#ffffff" stroke-width="1.5"/><circle cx="246" cy="276.09190809190807" r="4" fill="#dc2626" stroke="#ffffff" stroke-width="1.5"/><circle cx="337" cy="249.31868131868129" r="4" fill="#dc2626" stroke="#ffffff" stroke-width="1.5"/><circle cx="428" cy="227.90009990009986" r="4" fill="#dc2626" stroke="#ffffff" stroke-width="1.5"/><circle cx="519" cy="238.60939060939057" r="4" fill="#dc2626" stroke="#ffffff" stroke-width="1.5"/><circle cx="610" cy="211.8361638361638" r="4" fill="#dc2626" stroke="#ffffff" stroke-width="1.5"/><text x="14" y="186" text-anchor="middle" font-size="10" fill="#475569" transform="rotate(-90,14,186)">Mean Outcome Score</text><rect x="227" y="358" width="12" height="12" rx="2" fill="#2563eb"/>
    <text x="243" y="367" font-size="11" fill="#475569">Group 1</text>
<rect x="337" y="358" width="12" height="12" rx="2" fill="#dc2626"/>
    <text x="353" y="367" font-size="11" fill="#475569">Group 2</text>
  <text x="628" y="376" text-anchor="end" font-size="9" fill="#94a3b8">Illustrative sample data — not real.</text>
</svg>