<svg xmlns="http://www.w3.org/2000/svg" viewBox="0 0 640 384" width="640" height="384" font-family="Inter, system-ui, -apple-system, Segoe UI, Roboto, sans-serif">
  <rect width="640" height="384" fill="#ffffff" rx="4"/>
  <rect width="640" height="384" fill="none" stroke="#e2e8f0" stroke-width="1" rx="4"/>
  <text x="320" y="28" text-anchor="middle" font-size="14" font-weight="700" fill="#1e293b">Table 2 — Annual Counts and Rates by Reporting Year</text>
  <rect x="28" y="52" width="584" height="30" rx="3" fill="#2563eb"/><text x="38" y="72" text-anchor="start" font-size="11" font-weight="700" fill="#ffffff">Year</text><text x="222.66666666666666" y="72" text-anchor="middle" font-size="11" font-weight="700" fill="#ffffff">Total Cases</text><text x="376.77777777777777" y="72" text-anchor="middle" font-size="11" font-weight="700" fill="#ffffff">Rate /1k</text><text x="530.8888888888889" y="72" text-anchor="middle" font-size="11" font-weight="700" fill="#ffffff">Δ YoY (%)</text><rect x="28" y="82" width="584" height="28" fill="#ffffff"/><text x="38" y="101" text-anchor="start" font-size="11" font-weight="600" fill="#1e293b">2019</text><text x="222.66666666666666" y="101" text-anchor="middle" font-size="11" font-weight="400" fill="#475569">1,047</text><text x="376.77777777777777" y="101" text-anchor="middle" font-size="11" font-weight="400" fill="#475569">14.8</text><text x="530.8888888888889" y="101" text-anchor="middle" font-size="11" font-weight="400" fill="#475569">+4.2%</text><rect x="28" y="110" width="584" height="28" fill="#f8fafc"/><text x="38" y="129" text-anchor="start" font-size="11" font-weight="600" fill="#1e293b">2020</text><text x="222.66666666666666" y="129" text-anchor="middle" font-size="11" font-weight="400" fill="#475569">   891</text><text x="376.77777777777777" y="129" text-anchor="middle" font-size="11" font-weight="400" fill="#475569">12.6</text><text x="530.8888888888889" y="129" text-anchor="middle" font-size="11" font-weight="400" fill="#475569">−14.8%</text><rect x="28" y="138" width="584" height="28" fill="#ffffff"/><text x="38" y="157" text-anchor="start" font-size="11" font-weight="600" fill="#1e293b">2021</text><text x="222.66666666666666" y="157" text-anchor="middle" font-size="11" font-weight="400" fill="#475569">1,132</text><text x="376.77777777777777" y="157" text-anchor="middle" font-size="11" font-weight="400" fill="#475569">16.0</text><text x="530.8888888888889" y="157" text-anchor="middle" font-size="11" font-weight="400" fill="#475569">+27.0%</text><rect x="28" y="166" width="584" height="28" fill="#f8fafc"/><text x="38" y="185" text-anchor="start" font-size="11" font-weight="600" fill="#1e293b">2022</text><text x="222.66666666666666" y="185" text-anchor="middle" font-size="11" font-weight="400" fill="#475569">1,284</text><text x="376.77777777777777" y="185" text-anchor="middle" font-size="11" font-weight="400" fill="#475569">18.1</text><text x="530.8888888888889" y="185" text-anchor="middle" font-size="11" font-weight="400" fill="#475569">+13.0%</text><rect x="28" y="194" width="584" height="28" fill="#ffffff"/><text x="38" y="213" text-anchor="start" font-size="11" font-weight="600" fill="#1e293b">2023</text><text x="222.66666666666666" y="213" text-anchor="middle" font-size="11" font-weight="400" fill="#475569">1,408</text><text x="376.77777777777777" y="213" text-anchor="middle" font-size="11" font-weight="400" fill="#475569">19.9</text><text x="530.8888888888889" y="213" text-anchor="middle" font-size="11" font-weight="400" fill="#475569">+9.7%</text><rect x="28" y="222" width="584" height="28" fill="#f8fafc"/><text x="38" y="241" text-anchor="start" font-size="11" font-weight="600" fill="#1e293b">2024</text><text x="222.66666666666666" y="241" text-anchor="middle" font-size="11" font-weight="400" fill="#475569">1,521</text><text x="376.77777777777777" y="241" text-anchor="middle" font-size="11" font-weight="400" fill="#475569">21.5</text><text x="530.8888888888889" y="241" text-anchor="middle" font-size="11" font-weight="400" fill="#475569">+8.0%</text><rect x="28" y="52" width="584" height="198" fill="none" stroke="#e2e8f0" stroke-width="1" rx="3"/><line x1="28" y1="82" x2="612" y2="82" stroke="#e2e8f0" stroke-width="1"/><line x1="28" y1="110" x2="612" y2="110" stroke="#e2e8f0" stroke-width="1"/><line x1="28" y1="138" x2="612" y2="138" stroke="#e2e8f0" stroke-width="1"/><line x1="28" y1="166" x2="612" y2="166" stroke="#e2e8f0" stroke-width="1"/><line x1="28" y1="194" x2="612" y2="194" stroke="#e2e8f0" stroke-width="1"/><line x1="28" y1="222" x2="612" y2="222" stroke="#e2e8f0" stroke-width="1"/><line x1="141.55555555555554" y1="52" x2="141.55555555555554" y2="250" stroke="#e2e8f0" stroke-width="1"/><line x1="303.77777777777777" y1="52" x2="303.77777777777777" y2="250" stroke="#e2e8f0" stroke-width="1"/><line x1="449.77777777777777" y1="52" x2="449.77777777777777" y2="250" stroke="#e2e8f0" stroke-width="1"/>
  <text x="628" y="376" text-anchor="end" font-size="9" fill="#94a3b8">Illustrative sample data — not real.</text>
</svg>