<svg xmlns="http://www.w3.org/2000/svg" viewBox="0 0 640 384" width="640" height="384" font-family="Inter, system-ui, -apple-system, Segoe UI, Roboto, sans-serif">
  <rect width="640" height="384" fill="#ffffff" rx="4"/>
  <rect width="640" height="384" fill="none" stroke="#e2e8f0" stroke-width="1" rx="4"/>
  <text x="320" y="28" text-anchor="middle" font-size="14" font-weight="700" fill="#1e293b">Figure 2 — Percentage of Cases by Classification</text>
  <line x1="60" y1="320" x2="610" y2="320" stroke="#e2e8f0" stroke-width="1"/><line x1="60" y1="266.4" x2="610" y2="266.4" stroke="#e2e8f0" stroke-width="1"/><line x1="60" y1="212.8" x2="610" y2="212.8" stroke="#e2e8f0" stroke-width="1"/><line x1="60" y1="159.20000000000002" x2="610" y2="159.20000000000002" stroke="#e2e8f0" stroke-width="1"/><line x1="60" y1="105.6" x2="610" y2="105.6" stroke="#e2e8f0" stroke-width="1"/><line x1="60" y1="52" x2="610" y2="52" stroke="#e2e8f0" stroke-width="1"/><line x1="60" y1="52" x2="60" y2="320" stroke="#475569" stroke-width="1.5"/><line x1="60" y1="320" x2="610" y2="320" stroke="#475569" stroke-width="1.5"/><text x="54" y="324" text-anchor="end" font-size="10" fill="#475569">0</text><text x="54" y="270.4" text-anchor="end" font-size="10" fill="#475569">9</text><text x="54" y="216.8" text-anchor="end" font-size="10" fill="#475569">19</text><text x="54" y="163.20000000000002" text-anchor="end" font-size="10" fill="#475569">28</text><text x="54" y="109.6" text-anchor="end" font-size="10" fill="#475569">38</text><text x="54" y="56" text-anchor="end" font-size="10" fill="#475569">47</text><rect x="90.9375" y="160.84835630965006" width="75.625" height="159.15164369034994" rx="3" fill="#0d9488"/><text x="128.75" y="156.84835630965006" text-anchor="middle" font-size="10" font-weight="600" fill="#1e293b">28</text><text x="128.75" y="336" text-anchor="middle" font-size="10" fill="#475569">Class I</text><rect x="228.4375" y="86.95652173913044" width="75.625" height="233.04347826086956" rx="3" fill="#0d9488"/><text x="266.25" y="82.95652173913044" text-anchor="middle" font-size="10" font-weight="600" fill="#1e293b">41</text><text x="266.25" y="336" text-anchor="middle" font-size="10" fill="#475569">Class II</text><rect x="365.9375" y="212.00424178154825" width="75.625" height="107.99575821845175" rx="3" fill="#0d9488"/><text x="403.75" y="208.00424178154825" text-anchor="middle" font-size="10" font-weight="600" fill="#1e293b">19</text><text x="403.75" y="336" text-anchor="middle" font-size="10" fill="#475569">Class III</text><rect x="503.4375" y="251.79215270413573" width="75.625" height="68.20784729586427" rx="3" fill="#0d9488"/><text x="541.25" y="247.79215270413573" text-anchor="middle" font-size="10" font-weight="600" fill="#1e293b">12</text><text x="541.25" y="336" text-anchor="middle" font-size="10" fill="#475569">Class IV</text><text x="14" y="186" text-anchor="middle" font-size="10" fill="#475569" transform="rotate(-90,14,186)">Percent (%)</text><text x="335" y="366" text-anchor="middle" font-size="10" fill="#475569">Classification</text>
  <text x="628" y="376" text-anchor="end" font-size="9" fill="#94a3b8">Illustrative sample data — not real.</text>
</svg>