<svg xmlns="http://www.w3.org/2000/svg" viewBox="0 0 640 384" width="640" height="384" font-family="Inter, system-ui, -apple-system, Segoe UI, Roboto, sans-serif">
  <rect width="640" height="384" fill="#ffffff" rx="4"/>
  <rect width="640" height="384" fill="none" stroke="#e2e8f0" stroke-width="1" rx="4"/>
  <text x="320" y="28" text-anchor="middle" font-size="14" font-weight="700" fill="#1e293b">Figure 1 — Incident Count by Category (2023)</text>
  <line x1="60" y1="320" x2="610" y2="320" stroke="#e2e8f0" stroke-width="1"/><line x1="60" y1="266.4" x2="610" y2="266.4" stroke="#e2e8f0" stroke-width="1"/><line x1="60" y1="212.8" x2="610" y2="212.8" stroke="#e2e8f0" stroke-width="1"/><line x1="60" y1="159.20000000000002" x2="610" y2="159.20000000000002" stroke="#e2e8f0" stroke-width="1"/><line x1="60" y1="105.6" x2="610" y2="105.6" stroke="#e2e8f0" stroke-width="1"/><line x1="60" y1="52" x2="610" y2="52" stroke="#e2e8f0" stroke-width="1"/><line x1="60" y1="52" x2="60" y2="320" stroke="#475569" stroke-width="1.5"/><line x1="60" y1="320" x2="610" y2="320" stroke="#475569" stroke-width="1.5"/><text x="54" y="324" text-anchor="end" font-size="10" fill="#475569">0</text><text x="54" y="270.4" text-anchor="end" font-size="10" fill="#475569">112</text><text x="54" y="216.8" text-anchor="end" font-size="10" fill="#475569">224</text><text x="54" y="163.20000000000002" text-anchor="end" font-size="10" fill="#475569">336</text><text x="54" y="109.6" text-anchor="end" font-size="10" fill="#475569">448</text><text x="54" y="56" text-anchor="end" font-size="10" fill="#475569">560</text><rect x="84.75" y="170.69904472814926" width="60.50000000000001" height="149.30095527185074" rx="3" fill="#2563eb"/><text x="115" y="166.69904472814926" text-anchor="middle" font-size="10" font-weight="600" fill="#1e293b">312</text><text x="115" y="336" text-anchor="middle" font-size="10" fill="#475569">Category A</text><rect x="194.75" y="86.95652173913041" width="60.50000000000001" height="233.0434782608696" rx="3" fill="#2563eb"/><text x="225" y="82.95652173913041" text-anchor="middle" font-size="10" font-weight="600" fill="#1e293b">487</text><text x="225" y="336" text-anchor="middle" font-size="10" fill="#475569">Category B</text><rect x="304.75" y="222.38014462994374" width="60.50000000000001" height="97.61985537005624" rx="3" fill="#2563eb"/><text x="335" y="218.38014462994374" text-anchor="middle" font-size="10" font-weight="600" fill="#1e293b">204</text><text x="335" y="336" text-anchor="middle" font-size="10" fill="#475569">Category C</text><rect x="414.75" y="133.85233461298097" width="60.50000000000001" height="186.14766538701903" rx="3" fill="#2563eb"/><text x="445" y="129.85233461298097" text-anchor="middle" font-size="10" font-weight="600" fill="#1e293b">389</text><text x="445" y="336" text-anchor="middle" font-size="10" fill="#475569">Category D</text><rect x="524.75" y="245.34952236407463" width="60.50000000000001" height="74.65047763592537" rx="3" fill="#2563eb"/><text x="555" y="241.34952236407463" text-anchor="middle" font-size="10" font-weight="600" fill="#1e293b">156</text><text x="555" y="336" text-anchor="middle" font-size="10" fill="#475569">Category E</text><text x="14" y="186" text-anchor="middle" font-size="10" fill="#475569" transform="rotate(-90,14,186)">Count</text><text x="335" y="366" text-anchor="middle" font-size="10" fill="#475569">Category</text>
  <text x="628" y="376" text-anchor="end" font-size="9" fill="#94a3b8">Illustrative sample data — not real.</text>
</svg>