<svg xmlns="http://www.w3.org/2000/svg" viewBox="0 0 640 384" width="640" height="384" font-family="Inter, system-ui, -apple-system, Segoe UI, Roboto, sans-serif">
  <rect width="640" height="384" fill="#ffffff" rx="4"/>
  <rect width="640" height="384" fill="none" stroke="#e2e8f0" stroke-width="1" rx="4"/>
  <text x="320" y="28" text-anchor="middle" font-size="14" font-weight="700" fill="#1e293b">Figure 8 — Series A vs. Series B by Reporting Period</text>
  <line x1="62" y1="308" x2="610" y2="308" stroke="#e2e8f0" stroke-width="1"/><line x1="62" y1="256.8" x2="610" y2="256.8" stroke="#e2e8f0" stroke-width="1"/><line x1="62" y1="205.6" x2="610" y2="205.6" stroke="#e2e8f0" stroke-width="1"/><line x1="62" y1="154.4" x2="610" y2="154.4" stroke="#e2e8f0" stroke-width="1"/><line x1="62" y1="103.19999999999999" x2="610" y2="103.19999999999999" stroke="#e2e8f0" stroke-width="1"/><line x1="62" y1="52" x2="610" y2="52" stroke="#e2e8f0" stroke-width="1"/><line x1="62" y1="52" x2="62" y2="308" stroke="#475569" stroke-width="1.5"/><line x1="62" y1="308" x2="610" y2="308" stroke="#475569" stroke-width="1.5"/><text x="56" y="312" text-anchor="end" font-size="10" fill="#475569">0</text><text x="56" y="260.8" text-anchor="end" font-size="10" fill="#475569">41</text><text x="56" y="209.6" text-anchor="end" font-size="10" fill="#475569">81</text><text x="56" y="158.4" text-anchor="end" font-size="10" fill="#475569">122</text><text x="56" y="107.19999999999999" text-anchor="end" font-size="10" fill="#475569">162</text><text x="56" y="56" text-anchor="end" font-size="10" fill="#475569">203</text><rect x="82.55" y="151.59479700433582" width="45.949999999999996" height="156.40520299566418" rx="2" fill="#2563eb"/><text x="105.52499999999999" y="147.59479700433582" text-anchor="middle" font-size="9" font-weight="600" fill="#1e293b">124</text><rect x="130.5" y="184.38943634213638" width="45.949999999999996" height="123.61056365786364" rx="2" fill="#d97706"/><text x="153.475" y="180.38943634213638" text-anchor="middle" font-size="9" font-weight="600" fill="#1e293b">98</text><text x="130.5" y="324" text-anchor="middle" font-size="10" fill="#475569">Q1 2023</text><rect x="219.55" y="108.70949940875047" width="45.949999999999996" height="199.29050059124953" rx="2" fill="#2563eb"/><text x="242.525" y="104.70949940875047" text-anchor="middle" font-size="9" font-weight="600" fill="#1e293b">158</text><rect x="267.5" y="166.730784391013" width="45.949999999999996" height="141.269215608987" rx="2" fill="#d97706"/><text x="290.475" y="162.730784391013" text-anchor="middle" font-size="9" font-weight="600" fill="#1e293b">112</text><text x="267.5" y="324" text-anchor="middle" font-size="10" fill="#475569">Q2 2023</text><rect x="356.55" y="127.62948364209694" width="45.949999999999996" height="180.37051635790306" rx="2" fill="#2563eb"/><text x="379.52500000000003" y="123.62948364209694" text-anchor="middle" font-size="9" font-weight="600" fill="#1e293b">143</text><rect x="404.5" y="142.76547102877413" width="45.949999999999996" height="165.23452897122587" rx="2" fill="#d97706"/><text x="427.475" y="138.76547102877413" text-anchor="middle" font-size="9" font-weight="600" fill="#1e293b">131</text><text x="404.5" y="324" text-anchor="middle" font-size="10" fill="#475569">Q3 2023</text><rect x="493.55" y="91.0508474576271" width="45.949999999999996" height="216.9491525423729" rx="2" fill="#2563eb"/><text x="516.525" y="87.0508474576271" text-anchor="middle" font-size="9" font-weight="600" fill="#1e293b">172</text><rect x="541.5" y="120.06148994875835" width="45.949999999999996" height="187.93851005124165" rx="2" fill="#d97706"/><text x="564.475" y="116.06148994875835" text-anchor="middle" font-size="9" font-weight="600" fill="#1e293b">149</text><text x="541.5" y="324" text-anchor="middle" font-size="10" fill="#475569">Q4 2023</text><text x="14" y="180" text-anchor="middle" font-size="10" fill="#475569" transform="rotate(-90,14,180)">Count</text><rect x="226" y="346" width="12" height="12" rx="2" fill="#2563eb"/>
    <text x="242" y="355" font-size="11" fill="#475569">Series A</text>
<rect x="336" y="346" width="12" height="12" rx="2" fill="#d97706"/>
    <text x="352" y="355" font-size="11" fill="#475569">Series B</text>
  <text x="628" y="376" text-anchor="end" font-size="9" fill="#94a3b8">Illustrative sample data — not real.</text>
</svg>