<svg xmlns="http://www.w3.org/2000/svg" viewBox="0 0 640 384" width="640" height="384" font-family="Inter, system-ui, -apple-system, Segoe UI, Roboto, sans-serif">
  <rect width="640" height="384" fill="#ffffff" rx="4"/>
  <rect width="640" height="384" fill="none" stroke="#e2e8f0" stroke-width="1" rx="4"/>
  <text x="320" y="28" text-anchor="middle" font-size="14" font-weight="700" fill="#1e293b">Table 1 — Summary Statistics by Subgroup</text>
  <rect x="28" y="52" width="584" height="30" rx="3" fill="#2563eb"/><text x="38" y="72" text-anchor="start" font-size="11" font-weight="700" fill="#ffffff">Subgroup</text><text x="220.2926829268293" y="72" text-anchor="middle" font-size="11" font-weight="700" fill="#ffffff">n</text><text x="320" y="72" text-anchor="middle" font-size="11" font-weight="700" fill="#ffffff">Mean (SD)</text><text x="433.95121951219517" y="72" text-anchor="middle" font-size="11" font-weight="700" fill="#ffffff">Median</text><text x="547.9024390243902" y="72" text-anchor="middle" font-size="11" font-weight="700" fill="#ffffff">95% CI</text><rect x="28" y="82" width="584" height="28" fill="#ffffff"/><text x="38" y="101" text-anchor="start" font-size="11" font-weight="600" fill="#1e293b">Group Alpha</text><text x="220.2926829268293" y="101" text-anchor="middle" font-size="11" font-weight="400" fill="#475569">312</text><text x="320" y="101" text-anchor="middle" font-size="11" font-weight="400" fill="#475569">24.7 (6.1)</text><text x="433.95121951219517" y="101" text-anchor="middle" font-size="11" font-weight="400" fill="#475569">23.4</text><text x="547.9024390243902" y="101" text-anchor="middle" font-size="11" font-weight="400" fill="#475569">23.8 – 25.6</text><rect x="28" y="110" width="584" height="28" fill="#f8fafc"/><text x="38" y="129" text-anchor="start" font-size="11" font-weight="600" fill="#1e293b">Group Beta</text><text x="220.2926829268293" y="129" text-anchor="middle" font-size="11" font-weight="400" fill="#475569">284</text><text x="320" y="129" text-anchor="middle" font-size="11" font-weight="400" fill="#475569">31.2 (8.4)</text><text x="433.95121951219517" y="129" text-anchor="middle" font-size="11" font-weight="400" fill="#475569">30.0</text><text x="547.9024390243902" y="129" text-anchor="middle" font-size="11" font-weight="400" fill="#475569">30.1 – 32.3</text><rect x="28" y="138" width="584" height="28" fill="#ffffff"/><text x="38" y="157" text-anchor="start" font-size="11" font-weight="600" fill="#1e293b">Group Gamma</text><text x="220.2926829268293" y="157" text-anchor="middle" font-size="11" font-weight="400" fill="#475569">198</text><text x="320" y="157" text-anchor="middle" font-size="11" font-weight="400" fill="#475569">19.3 (5.2)</text><text x="433.95121951219517" y="157" text-anchor="middle" font-size="11" font-weight="400" fill="#475569">18.7</text><text x="547.9024390243902" y="157" text-anchor="middle" font-size="11" font-weight="400" fill="#475569">18.5 – 20.1</text><rect x="28" y="166" width="584" height="28" fill="#f8fafc"/><text x="38" y="185" text-anchor="start" font-size="11" font-weight="600" fill="#1e293b">Group Delta</text><text x="220.2926829268293" y="185" text-anchor="middle" font-size="11" font-weight="400" fill="#475569">267</text><text x="320" y="185" text-anchor="middle" font-size="11" font-weight="400" fill="#475569">27.8 (7.0)</text><text x="433.95121951219517" y="185" text-anchor="middle" font-size="11" font-weight="400" fill="#475569">26.9</text><text x="547.9024390243902" y="185" text-anchor="middle" font-size="11" font-weight="400" fill="#475569">26.9 – 28.7</text><rect x="28" y="194" width="584" height="28" fill="#ffffff"/><text x="38" y="213" text-anchor="start" font-size="11" font-weight="600" fill="#1e293b">Group Epsilon</text><text x="220.2926829268293" y="213" text-anchor="middle" font-size="11" font-weight="400" fill="#475569">143</text><text x="320" y="213" text-anchor="middle" font-size="11" font-weight="400" fill="#475569">22.5 (5.8)</text><text x="433.95121951219517" y="213" text-anchor="middle" font-size="11" font-weight="400" fill="#475569">21.8</text><text x="547.9024390243902" y="213" text-anchor="middle" font-size="11" font-weight="400" fill="#475569">21.5 – 23.5</text><rect x="28" y="52" width="584" height="170" fill="none" stroke="#e2e8f0" stroke-width="1" rx="3"/><line x1="28" y1="82" x2="612" y2="82" stroke="#e2e8f0" stroke-width="1"/><line x1="28" y1="110" x2="612" y2="110" stroke="#e2e8f0" stroke-width="1"/><line x1="28" y1="138" x2="612" y2="138" stroke="#e2e8f0" stroke-width="1"/><line x1="28" y1="166" x2="612" y2="166" stroke="#e2e8f0" stroke-width="1"/><line x1="28" y1="194" x2="612" y2="194" stroke="#e2e8f0" stroke-width="1"/><line x1="184.6829268292683" y1="52" x2="184.6829268292683" y2="222" stroke="#e2e8f0" stroke-width="1"/><line x1="255.90243902439025" y1="52" x2="255.90243902439025" y2="222" stroke="#e2e8f0" stroke-width="1"/><line x1="384.0975609756098" y1="52" x2="384.0975609756098" y2="222" stroke="#e2e8f0" stroke-width="1"/><line x1="483.8048780487805" y1="52" x2="483.8048780487805" y2="222" stroke="#e2e8f0" stroke-width="1"/>
  <text x="628" y="376" text-anchor="end" font-size="9" fill="#94a3b8">Illustrative sample data — not real.</text>
</svg>