<svg xmlns="http://www.w3.org/2000/svg" viewBox="0 0 640 384" width="640" height="384" font-family="Inter, system-ui, -apple-system, Segoe UI, Roboto, sans-serif">
  <rect width="640" height="384" fill="#ffffff" rx="4"/>
  <rect width="640" height="384" fill="none" stroke="#e2e8f0" stroke-width="1" rx="4"/>
  <text x="320" y="28" text-anchor="middle" font-size="14" font-weight="700" fill="#1e293b">Figure 6 — Annual Rate per 1,000 (2018–2024)</text>
  <line x1="64" y1="320" x2="610" y2="320" stroke="#e2e8f0" stroke-width="1"/><line x1="64" y1="266.4" x2="610" y2="266.4" stroke="#e2e8f0" stroke-width="1"/><line x1="64" y1="212.8" x2="610" y2="212.8" stroke="#e2e8f0" stroke-width="1"/><line x1="64" y1="159.20000000000002" x2="610" y2="159.20000000000002" stroke="#e2e8f0" stroke-width="1"/><line x1="64" y1="105.6" x2="610" y2="105.6" stroke="#e2e8f0" stroke-width="1"/><line x1="64" y1="52" x2="610" y2="52" stroke="#e2e8f0" stroke-width="1"/><line x1="64" y1="52" x2="64" y2="320" stroke="#e2e8f0" stroke-width="1"/><line x1="155" y1="52" x2="155" y2="320" stroke="#e2e8f0" stroke-width="1"/><line x1="246" y1="52" x2="246" y2="320" stroke="#e2e8f0" stroke-width="1"/><line x1="337" y1="52" x2="337" y2="320" stroke="#e2e8f0" stroke-width="1"/><line x1="428" y1="52" x2="428" y2="320" stroke="#e2e8f0" stroke-width="1"/><line x1="519" y1="52" x2="519" y2="320" stroke="#e2e8f0" stroke-width="1"/><line x1="610" y1="52" x2="610" y2="320" stroke="#e2e8f0" stroke-width="1"/><line x1="64" y1="52" x2="64" y2="320" stroke="#475569" stroke-width="1.5"/><line x1="64" y1="320" x2="610" y2="320" stroke="#475569" stroke-width="1.5"/><text x="56" y="324" text-anchor="end" font-size="10" fill="#475569">11</text><text x="56" y="270.4" text-anchor="end" font-size="10" fill="#475569">14</text><text x="56" y="216.8" text-anchor="end" font-size="10" fill="#475569">16</text><text x="56" y="163.20000000000002" text-anchor="end" font-size="10" fill="#475569">19</text><text x="56" y="109.6" text-anchor="end" font-size="10" fill="#475569">21</text><text x="56" y="56" text-anchor="end" font-size="10" fill="#475569">24</text><text x="64" y="336" text-anchor="middle" font-size="10" fill="#475569">2018</text><text x="155" y="336" text-anchor="middle" font-size="10" fill="#475569">2019</text><text x="246" y="336" text-anchor="middle" font-size="10" fill="#475569">2020</text><text x="337" y="336" text-anchor="middle" font-size="10" fill="#475569">2021</text><text x="428" y="336" text-anchor="middle" font-size="10" fill="#475569">2022</text><text x="519" y="336" text-anchor="middle" font-size="10" fill="#475569">2023</text><text x="610" y="336" text-anchor="middle" font-size="10" fill="#475569">2024</text><polyline points="64,255.1681136543015 155,221.32438831886338 246,278.43567482241514 337,208.63299131807418 428,174.78926598263612 519,147.29123914759268 610,117.6779794790844" fill="none" stroke="#2563eb" stroke-width="2.5" stroke-linejoin="round" stroke-linecap="round"/><circle cx="64" cy="255.1681136543015" r="4" fill="#2563eb" stroke="#ffffff" stroke-width="1.5"/><circle cx="155" cy="221.32438831886338" r="4" fill="#2563eb" stroke="#ffffff" stroke-width="1.5"/><circle cx="246" cy="278.43567482241514" r="4" fill="#2563eb" stroke="#ffffff" stroke-width="1.5"/><circle cx="337" cy="208.63299131807418" r="4" fill="#2563eb" stroke="#ffffff" stroke-width="1.5"/><circle cx="428" cy="174.78926598263612" r="4" fill="#2563eb" stroke="#ffffff" stroke-width="1.5"/><circle cx="519" cy="147.29123914759268" r="4" fill="#2563eb" stroke="#ffffff" stroke-width="1.5"/><circle cx="610" cy="117.6779794790844" r="4" fill="#2563eb" stroke="#ffffff" stroke-width="1.5"/><text x="14" y="186" text-anchor="middle" font-size="10" fill="#475569" transform="rotate(-90,14,186)">Rate per 1,000</text>
  <text x="628" y="376" text-anchor="end" font-size="9" fill="#94a3b8">Illustrative sample data — not real.</text>
</svg>