<svg xmlns="http://www.w3.org/2000/svg" viewBox="0 0 640 384" width="640" height="384" font-family="Inter, system-ui, -apple-system, Segoe UI, Roboto, sans-serif">
  <rect width="640" height="384" fill="#ffffff" rx="4"/>
  <rect width="640" height="384" fill="none" stroke="#e2e8f0" stroke-width="1" rx="4"/>
  <text x="320" y="28" text-anchor="middle" font-size="14" font-weight="700" fill="#1e293b">Figure 5 — Average Score by Region</text>
  <line x1="130" y1="52" x2="130" y2="334" stroke="#e2e8f0" stroke-width="1"/><line x1="216" y1="52" x2="216" y2="334" stroke="#e2e8f0" stroke-width="1"/><line x1="302" y1="52" x2="302" y2="334" stroke="#e2e8f0" stroke-width="1"/><line x1="388" y1="52" x2="388" y2="334" stroke="#e2e8f0" stroke-width="1"/><line x1="474" y1="52" x2="474" y2="334" stroke="#e2e8f0" stroke-width="1"/><line x1="560" y1="52" x2="560" y2="334" stroke="#e2e8f0" stroke-width="1"/><line x1="130" y1="52" x2="130" y2="334" stroke="#475569" stroke-width="1.5"/><line x1="130" y1="334" x2="560" y2="334" stroke="#475569" stroke-width="1.5"/><text x="130" y="348" text-anchor="middle" font-size="10" fill="#475569">0</text><text x="216" y="348" text-anchor="middle" font-size="10" fill="#475569">22</text><text x="302" y="348" text-anchor="middle" font-size="10" fill="#475569">43</text><text x="388" y="348" text-anchor="middle" font-size="10" fill="#475569">65</text><text x="474" y="348" text-anchor="middle" font-size="10" fill="#475569">86</text><text x="560" y="348" text-anchor="middle" font-size="10" fill="#475569">108</text><rect x="130" y="61.06428571428572" width="202.8677150786309" height="22.15714285714286" rx="3" fill="#d97706"/><text x="327.8677150786309" y="76.14285714285714" text-anchor="end" font-size="10" font-weight="600" fill="#ffffff">51</text><text x="122" y="76.14285714285714" text-anchor="end" font-size="11" fill="#475569">Region G</text><rect x="130" y="101.35" width="250.6012950971323" height="22.15714285714286" rx="3" fill="#d97706"/><text x="375.60129509713227" y="116.42857142857142" text-anchor="end" font-size="10" font-weight="600" fill="#ffffff">63</text><text x="122" y="116.42857142857142" text-anchor="end" font-size="11" fill="#475569">Region F</text><rect x="130" y="141.63571428571427" width="282.4236817761332" height="22.15714285714286" rx="3" fill="#d97706"/><text x="407.4236817761332" y="156.7142857142857" text-anchor="end" font-size="10" font-weight="600" fill="#ffffff">71</text><text x="122" y="156.7142857142857" text-anchor="end" font-size="11" fill="#475569">Region E</text><rect x="130" y="181.92142857142858" width="294.3570767807586" height="22.15714285714286" rx="3" fill="#d97706"/><text x="419.3570767807586" y="197" text-anchor="end" font-size="10" font-weight="600" fill="#ffffff">74</text><text x="122" y="197" text-anchor="end" font-size="11" fill="#475569">Region D</text><rect x="130" y="222.20714285714286" width="318.2238667900093" height="22.15714285714286" rx="3" fill="#d97706"/><text x="443.2238667900093" y="237.28571428571428" text-anchor="end" font-size="10" font-weight="600" fill="#ffffff">80</text><text x="122" y="237.28571428571428" text-anchor="end" font-size="11" fill="#475569">Region C</text><rect x="130" y="262.49285714285713" width="350.0462534690102" height="22.15714285714286" rx="3" fill="#d97706"/><text x="475.0462534690102" y="277.57142857142856" text-anchor="end" font-size="10" font-weight="600" fill="#ffffff">88</text><text x="122" y="277.57142857142856" text-anchor="end" font-size="11" fill="#475569">Region B</text><rect x="130" y="302.7785714285714" width="373.91304347826093" height="22.15714285714286" rx="3" fill="#d97706"/><text x="498.91304347826093" y="317.85714285714283" text-anchor="end" font-size="10" font-weight="600" fill="#ffffff">94</text><text x="122" y="317.85714285714283" text-anchor="end" font-size="11" fill="#475569">Region A</text><text x="345" y="372" text-anchor="middle" font-size="10" fill="#475569">Mean Score (0–100)</text>
  <text x="628" y="376" text-anchor="end" font-size="9" fill="#94a3b8">Illustrative sample data — not real.</text>
</svg>