<svg xmlns="http://www.w3.org/2000/svg" viewBox="0 0 640 384" width="640" height="384" font-family="Inter, system-ui, -apple-system, Segoe UI, Roboto, sans-serif">
  <rect width="640" height="384" fill="#ffffff" rx="4"/>
  <rect width="640" height="384" fill="none" stroke="#e2e8f0" stroke-width="1" rx="4"/>
  <text x="320" y="28" text-anchor="middle" font-size="14" font-weight="700" fill="#1e293b">Figure 4 — Ranked Frequency by Subgroup (n = 1,204)</text>
  <line x1="130" y1="52" x2="130" y2="334" stroke="#e2e8f0" stroke-width="1"/><line x1="216" y1="52" x2="216" y2="334" stroke="#e2e8f0" stroke-width="1"/><line x1="302" y1="52" x2="302" y2="334" stroke="#e2e8f0" stroke-width="1"/><line x1="388" y1="52" x2="388" y2="334" stroke="#e2e8f0" stroke-width="1"/><line x1="474" y1="52" x2="474" y2="334" stroke="#e2e8f0" stroke-width="1"/><line x1="560" y1="52" x2="560" y2="334" stroke="#e2e8f0" stroke-width="1"/><line x1="130" y1="52" x2="130" y2="334" stroke="#475569" stroke-width="1.5"/><line x1="130" y1="334" x2="560" y2="334" stroke="#475569" stroke-width="1.5"/><text x="130" y="348" text-anchor="middle" font-size="10" fill="#475569">0</text><text x="216" y="348" text-anchor="middle" font-size="10" fill="#475569">95</text><text x="302" y="348" text-anchor="middle" font-size="10" fill="#475569">190</text><text x="388" y="348" text-anchor="middle" font-size="10" fill="#475569">284</text><text x="474" y="348" text-anchor="middle" font-size="10" fill="#475569">379</text><text x="560" y="348" text-anchor="middle" font-size="10" fill="#475569">474</text><rect x="130" y="62.575" width="78.95736597720558" height="25.85" rx="3" fill="#0d9488"/><text x="203.9573659772056" y="79.5" text-anchor="end" font-size="10" font-weight="600" fill="#ffffff">87</text><text x="122" y="79.5" text-anchor="end" font-size="11" fill="#475569">Subgroup F</text><rect x="130" y="109.575" width="121.61249472351204" height="25.85" rx="3" fill="#0d9488"/><text x="246.61249472351204" y="126.5" text-anchor="end" font-size="10" font-weight="600" fill="#ffffff">134</text><text x="122" y="126.5" text-anchor="end" font-size="11" fill="#475569">Subgroup E</text><rect x="130" y="156.575" width="161.54495567750106" height="25.85" rx="3" fill="#0d9488"/><text x="286.5449556775011" y="173.5" text-anchor="end" font-size="10" font-weight="600" fill="#ffffff">178</text><text x="122" y="173.5" text-anchor="end" font-size="11" fill="#475569">Subgroup D</text><rect x="130" y="203.575" width="200.5698607007176" height="25.85" rx="3" fill="#0d9488"/><text x="325.56986070071764" y="220.5" text-anchor="end" font-size="10" font-weight="600" fill="#ffffff">221</text><text x="122" y="220.5" text-anchor="end" font-size="11" fill="#475569">Subgroup C</text><rect x="130" y="250.575" width="276.8045588856058" height="25.85" rx="3" fill="#0d9488"/><text x="401.8045588856058" y="267.5" text-anchor="end" font-size="10" font-weight="600" fill="#ffffff">305</text><text x="122" y="267.5" text-anchor="end" font-size="11" fill="#475569">Subgroup B</text><rect x="130" y="297.575" width="373.91304347826093" height="25.85" rx="3" fill="#0d9488"/><text x="498.91304347826093" y="314.5" text-anchor="end" font-size="10" font-weight="600" fill="#ffffff">412</text><text x="122" y="314.5" text-anchor="end" font-size="11" fill="#475569">Subgroup A</text><text x="345" y="372" text-anchor="middle" font-size="10" fill="#475569">Frequency</text>
  <text x="628" y="376" text-anchor="end" font-size="9" fill="#94a3b8">Illustrative sample data — not real.</text>
</svg>